<svg width="397" height="116" viewBox="0 0 397 116" fill="none" xmlns="http://www.w3.org/2000/svg">
<rect y="99" width="397" height="17" rx="8.5" fill="#6366f1"/>
<path d="M43.9432 43.2614C43.6705 40.5114 42.5 38.375 40.4318 36.8523C38.3636 35.3295 35.5568 34.5682 32.0114 34.5682C29.6023 34.5682 27.5682 34.9091 25.9091 35.5909C24.25 36.25 22.9773 37.1705 22.0909 38.3523C21.2273 39.5341 20.7955 40.875 20.7955 42.375C20.75 43.625 21.0114 44.7159 21.5795 45.6477C22.1705 46.5795 22.9773 47.3864 24 48.0682C25.0227 48.7273 26.2045 49.3068 27.5455 49.8068C28.8864 50.2841 30.3182 50.6932 31.8409 51.0341L38.1136 52.5341C41.1591 53.2159 43.9545 54.125 46.5 55.2614C49.0455 56.3977 51.25 57.7955 53.1136 59.4545C54.9773 61.1136 56.4205 63.0682 57.4432 65.3182C58.4886 67.5682 59.0227 70.1477 59.0455 73.0568C59.0227 77.3295 57.9318 81.0341 55.7727 84.1705C53.6364 87.2841 50.5455 89.7045 46.5 91.4318C42.4773 93.1364 37.625 93.9886 31.9432 93.9886C26.3068 93.9886 21.3977 93.125 17.2159 91.3977C13.0568 89.6705 9.80682 87.1136 7.46591 83.7273C5.14773 80.3182 3.93182 76.1023 3.81818 71.0795H18.1023C18.2614 73.4205 18.9318 75.375 20.1136 76.9432C21.3182 78.4886 22.9205 79.6591 24.9205 80.4545C26.9432 81.2273 29.2273 81.6136 31.7727 81.6136C34.2727 81.6136 36.4432 81.25 38.2841 80.5227C40.1477 79.7955 41.5909 78.7841 42.6136 77.4886C43.6364 76.1932 44.1477 74.7045 44.1477 73.0227C44.1477 71.4545 43.6818 70.1364 42.75 69.0682C41.8409 68 40.5 67.0909 38.7273 66.3409C36.9773 65.5909 34.8295 64.9091 32.2841 64.2955L24.6818 62.3864C18.7955 60.9545 14.1477 58.7159 10.7386 55.6705C7.32955 52.625 5.63636 48.5227 5.65909 43.3636C5.63636 39.1364 6.76136 35.4432 9.03409 32.2841C11.3295 29.125 14.4773 26.6591 18.4773 24.8864C22.4773 23.1136 27.0227 22.2273 32.1136 22.2273C37.2955 22.2273 41.8182 23.1136 45.6818 24.8864C49.5682 26.6591 52.5909 29.125 54.75 32.2841C56.9091 35.4432 58.0227 39.1023 58.0909 43.2614H43.9432ZM92.3608 94.0227C87.0653 94.0227 82.4858 92.8977 78.6222 90.6477C74.7813 88.375 71.8153 85.2159 69.7244 81.1705C67.6335 77.1023 66.5881 72.3864 66.5881 67.0227C66.5881 61.6136 67.6335 56.8864 69.7244 52.8409C71.8153 48.7727 74.7813 45.6136 78.6222 43.3636C82.4858 41.0909 87.0653 39.9545 92.3608 39.9545C97.6562 39.9545 102.224 41.0909 106.065 43.3636C109.929 45.6136 112.906 48.7727 114.997 52.8409C117.088 56.8864 118.134 61.6136 118.134 67.0227C118.134 72.3864 117.088 77.1023 114.997 81.1705C112.906 85.2159 109.929 88.375 106.065 90.6477C102.224 92.8977 97.6562 94.0227 92.3608 94.0227ZM92.429 82.7727C94.8381 82.7727 96.8494 82.0909 98.4631 80.7273C100.077 79.3409 101.293 77.4545 102.111 75.0682C102.952 72.6818 103.372 69.9659 103.372 66.9205C103.372 63.875 102.952 61.1591 102.111 58.7727C101.293 56.3864 100.077 54.5 98.4631 53.1136C96.8494 51.7273 94.8381 51.0341 92.429 51.0341C89.9972 51.0341 87.9517 51.7273 86.2926 53.1136C84.6563 54.5 83.4176 56.3864 82.5767 58.7727C81.7585 61.1591 81.3494 63.875 81.3494 66.9205C81.3494 69.9659 81.7585 72.6818 82.5767 75.0682C83.4176 77.4545 84.6563 79.3409 86.2926 80.7273C87.9517 82.0909 89.9972 82.7727 92.429 82.7727ZM142.099 62.7273V93H127.577V40.6364H141.418V49.875H142.031C143.19 46.8295 145.134 44.4205 147.861 42.6477C150.588 40.8523 153.895 39.9545 157.781 39.9545C161.418 39.9545 164.588 40.75 167.293 42.3409C169.997 43.9318 172.099 46.2045 173.599 49.1591C175.099 52.0909 175.849 55.5909 175.849 59.6591V93H161.327V62.25C161.349 59.0455 160.531 56.5455 158.872 54.75C157.213 52.9318 154.929 52.0227 152.02 52.0227C150.065 52.0227 148.338 52.4432 146.838 53.2841C145.361 54.125 144.202 55.3523 143.361 56.9659C142.543 58.5568 142.122 60.4773 142.099 62.7273ZM202.227 93.9886C198.886 93.9886 195.909 93.4091 193.295 92.25C190.682 91.0682 188.614 89.3295 187.091 87.0341C185.591 84.7159 184.841 81.8295 184.841 78.375C184.841 75.4659 185.375 73.0227 186.443 71.0455C187.511 69.0682 188.966 67.4773 190.807 66.2727C192.648 65.0682 194.739 64.1591 197.08 63.5455C199.443 62.9318 201.92 62.5 204.511 62.25C207.557 61.9318 210.011 61.6364 211.875 61.3636C213.739 61.0682 215.091 60.6364 215.932 60.0682C216.773 59.5 217.193 58.6591 217.193 57.5455V57.3409C217.193 55.1818 216.511 53.5114 215.148 52.3295C213.807 51.1477 211.898 50.5568 209.42 50.5568C206.807 50.5568 204.727 51.1364 203.182 52.2955C201.636 53.4318 200.614 54.8636 200.114 56.5909L186.682 55.5C187.364 52.3182 188.705 49.5682 190.705 47.25C192.705 44.9091 195.284 43.1136 198.443 41.8636C201.625 40.5909 205.307 39.9545 209.489 39.9545C212.398 39.9545 215.182 40.2955 217.841 40.9773C220.523 41.6591 222.898 42.7159 224.966 44.1477C227.057 45.5795 228.705 47.4205 229.909 49.6705C231.114 51.8977 231.716 54.5682 231.716 57.6818V93H217.943V85.7386H217.534C216.693 87.375 215.568 88.8182 214.159 90.0682C212.75 91.2955 211.057 92.2614 209.08 92.9659C207.102 93.6477 204.818 93.9886 202.227 93.9886ZM206.386 83.9659C208.523 83.9659 210.409 83.5455 212.045 82.7045C213.682 81.8409 214.966 80.6818 215.898 79.2273C216.83 77.7727 217.295 76.125 217.295 74.2841V68.7273C216.841 69.0227 216.216 69.2955 215.42 69.5455C214.648 69.7727 213.773 69.9886 212.795 70.1932C211.818 70.375 210.841 70.5455 209.864 70.7045C208.886 70.8409 208 70.9659 207.205 71.0795C205.5 71.3295 204.011 71.7273 202.739 72.2727C201.466 72.8182 200.477 73.5568 199.773 74.4886C199.068 75.3977 198.716 76.5341 198.716 77.8977C198.716 79.875 199.432 81.3864 200.864 82.4318C202.318 83.4545 204.159 83.9659 206.386 83.9659Z" fill="white"/>
<path d="M243.415 93.6463C241.775 93.6463 240.366 93.0663 239.19 91.9062C238.03 90.7296 237.45 89.321 237.45 87.6804C237.45 86.0563 238.03 84.6643 239.19 83.5043C240.366 82.3442 241.775 81.7642 243.415 81.7642C245.006 81.7642 246.398 82.3442 247.592 83.5043C248.785 84.6643 249.381 86.0563 249.381 87.6804C249.381 88.7741 249.1 89.7768 248.536 90.6882C247.989 91.5831 247.268 92.304 246.374 92.8509C245.479 93.3812 244.493 93.6463 243.415 93.6463ZM267.049 93H255.515L273.09 42.0909H286.96L304.51 93H292.976L280.224 53.7244H279.826L267.049 93ZM266.328 72.9893H293.573V81.3913H266.328V72.9893ZM310.638 93V42.0909H330.723C334.584 42.0909 337.874 42.8284 340.591 44.3033C343.309 45.7616 345.381 47.7917 346.806 50.3935C348.248 52.9787 348.969 55.9616 348.969 59.3423C348.969 62.723 348.239 65.706 346.781 68.2912C345.323 70.8764 343.21 72.8899 340.442 74.3317C337.691 75.7734 334.36 76.4943 330.449 76.4943H317.648V67.8686H328.709C330.781 67.8686 332.488 67.5123 333.83 66.7997C335.189 66.0705 336.2 65.0679 336.863 63.7919C337.542 62.4993 337.882 61.0161 337.882 59.3423C337.882 57.652 337.542 56.1771 336.863 54.9176C336.2 53.6416 335.189 52.6555 333.83 51.9595C332.471 51.2469 330.748 50.8906 328.66 50.8906H321.401V93H310.638ZM355.96 93V42.0909H376.045C379.906 42.0909 383.196 42.8284 385.914 44.3033C388.632 45.7616 390.703 47.7917 392.128 50.3935C393.57 52.9787 394.291 55.9616 394.291 59.3423C394.291 62.723 393.562 65.706 392.103 68.2912C390.645 70.8764 388.532 72.8899 385.765 74.3317C383.014 75.7734 379.683 76.4943 375.772 76.4943H362.97V67.8686H374.032C376.103 67.8686 377.81 67.5123 379.152 66.7997C380.511 66.0705 381.522 65.0679 382.185 63.7919C382.864 62.4993 383.204 61.0161 383.204 59.3423C383.204 57.652 382.864 56.1771 382.185 54.9176C381.522 53.6416 380.511 52.6555 379.152 51.9595C377.793 51.2469 376.07 50.8906 373.982 50.8906H366.723V93H355.96Z" fill="white"/>
</svg>
